<svg width="24" height="24" viewBox="0 0 24 24" fill="none" xmlns="http://www.w3.org/2000/svg">
<path d="M12.2562 3.58824C14.1186 3.58824 15.842 4.18034 17.2516 5.18426L14.7371 6.33423C14.0028 6.03546 13.2003 5.86896 12.3587 5.86896C8.86998 5.86896 6.04184 8.6971 6.04184 12.1858C6.04184 13.8696 6.70165 15.3987 7.7756 16.531L5.99699 18.1399L5.99539 18.1382L0.532227 23C2.27628 20.6938 5.22326 18.5662 4.44581 15.8671C3.92532 14.757 3.63298 13.5185 3.63298 12.2114C3.63298 7.44896 7.49371 3.58824 12.2562 3.58824Z" fill="white"/>
<path d="M23.4676 1C19.4443 6.0099 20.2707 7.89342 20.6871 10.3856L20.6823 10.3808C20.6871 10.3856 20.8793 11.5831 20.8793 12.2114C20.8793 16.9739 17.0186 20.8346 12.2562 20.8346C10.3914 20.8346 8.66612 20.2412 7.25587 19.2346L9.87374 17.9941C10.6365 18.3209 11.4763 18.5026 12.3587 18.5026C15.8474 18.5026 18.6755 15.6745 18.6755 12.1858C18.6755 11.3184 18.4994 10.4924 18.183 9.7401C18.1847 9.74603 18.187 9.75178 18.1886 9.75772C18.0065 9.30208 17.368 9.19539 16.9746 9.48864L9.29315 15.2153L16.78 7.68761L17.4495 7.02614L17.4454 7.02213L23.4676 1Z" fill="white"/>
</svg>
