<svg width="262" height="262" viewBox="0 0 262 262" fill="none" xmlns="http://www.w3.org/2000/svg">
<path d="M93.9891 77.501C93.9891 86.0129 87.0866 92.9162 78.5697 92.9162C70.0529 92.9162 63.1478 86.0129 63.1478 77.501C63.1478 74.6353 63.9283 71.9507 65.2896 69.6496C66.8081 67.0928 69.0486 65.0048 71.7286 63.6838C73.7878 62.6611 76.1109 62.0858 78.5697 62.0858C87.0866 62.0858 93.9891 68.9891 93.9891 77.501Z" fill="#AD8319"/>
<path fill-rule="evenodd" clip-rule="evenodd" d="M76.3826 0.00946953C77.1445 -0.0118369 77.9011 0.00946953 78.6683 0.00946953C108.668 0.00946953 134.743 16.5965 148.013 40.9924C168.363 40.6835 188.498 45.9035 206.205 56.1306C226.156 67.6574 242.055 84.9902 251.715 105.753C261.374 126.516 264.326 149.687 260.162 172.102C255.996 194.505 244.921 215.045 228.455 230.897C211.992 246.749 190.941 257.146 168.195 260.651C157.209 262.345 135.696 261.963 135.696 261.963H0.00532803L0.0053281 78.6089L0 77.7247L0.0053281 76.8405L0 0.00946953H76.3826ZM1.09225 64.7491C1.05229 64.9835 1.00966 65.2285 0.972365 65.4629H0.84982L0.948389 65.6227C0.993677 65.335 1.04429 65.0367 1.09225 64.7491ZM157.337 77.7247C157.337 72.217 156.759 66.8371 155.656 61.6597C169.748 62.5545 183.519 66.6986 195.85 73.815C212.101 83.2005 225.048 97.3266 232.917 114.233C240.787 131.151 243.19 150.017 239.796 168.266C236.405 186.526 227.384 203.252 213.974 216.163C200.56 229.075 183.415 237.544 164.889 240.399C146.364 243.254 127.364 240.357 110.498 232.111C93.6321 223.866 79.7259 210.666 70.6896 194.324C63.6486 181.604 59.8311 167.457 59.4794 153.107C65.62 154.63 72.0482 155.429 78.6683 155.429C122.116 155.429 157.337 120.636 157.337 77.7247ZM30.2445 138.97C32.9938 141.101 35.8896 143.05 38.9132 144.797C37.781 165.358 42.4804 185.898 52.5423 204.093C60.3719 218.241 71.1745 230.471 84.1295 240.005H21.8236V131.438C24.4423 134.144 27.2582 136.658 30.2445 138.97ZM136.611 77.7247C136.611 46.106 110.668 20.485 78.6683 20.485C46.6682 20.485 20.7287 46.106 20.7287 77.7247C20.7287 109.333 46.6682 134.954 78.6683 134.954C110.668 134.954 136.611 109.333 136.611 77.7247Z" fill="#AD8319"/>
</svg>
