<svg width="24" height="24" viewBox="0 0 24 24" fill="none" xmlns="http://www.w3.org/2000/svg">
<path d="M11.9721 22C9.38867 22 7.14689 21.1567 5.2468 19.47C3.3467 17.7833 2.26444 15.6637 2 13.1111H3.14206C3.4065 15.3519 4.38106 17.2085 6.06574 18.6811C7.75042 20.1537 9.71922 20.8896 11.9721 20.8889C14.4605 20.8889 16.5682 20.0278 18.2953 18.3056C20.0223 16.5833 20.8858 14.4815 20.8858 12C20.8858 9.51852 20.0223 7.41667 18.2953 5.69444C16.5682 3.97222 14.4605 3.11111 11.9721 3.11111C10.2184 3.11111 8.61578 3.57593 7.16434 4.50556C5.71439 5.43444 4.62581 6.70037 3.89861 8.30333H7.25794V9.41445H2.29638C2.87725 7.22111 4.06425 5.43704 5.85738 4.06222C7.65051 2.68741 9.68876 2 11.9721 2C13.3597 2 14.6633 2.26259 15.883 2.78778C17.1027 3.31296 18.1642 4.02482 19.0674 4.92333C19.9707 5.82185 20.6849 6.88 21.21 8.09778C21.7352 9.31556 21.9985 10.6152 22 11.9967C22.0015 13.3781 21.7382 14.6781 21.21 15.8967C20.6841 17.1137 19.9699 18.1726 19.0674 19.0733C18.1649 19.9741 17.1034 20.687 15.883 21.2122C14.6626 21.7374 13.359 22 11.9721 22ZM14.9203 15.7267L11.415 12.2278V7.25667H12.5292V11.7689L15.688 14.94L14.9203 15.7267Z" fill="#E6E6E6"/>
</svg>
